<?xml version="1.0" encoding="UTF-8" standalone="yes"?><svg xmlns="http://www.w3.org/2000/svg" xmlns:xlink="http://www.w3.org/1999/xlink" width="13px" height="12px" viewBox="0 0 13 12" version="1.1" style="zoom: 1;"><!-- Generator: sketchtool 3.7.2 (28276) - http://www.bohemiancoding.com/sketch --><title>DF90EF75-F651-4B5A-9143-4512A3D52EC8</title><desc>Created with sketchtool.</desc><defs></defs><g id="Page-1" stroke="none" stroke-width="1" fill="none" fill-rule="evenodd"><g id="Dashboard---Activity" transform="translate(-1149.000000, -268.000000)" fill="#476cb8"><g id="Body" transform="translate(-3.000000, 108.000000)"><g id="Main-Container" transform="translate(332.000000, 0.000000)"><g id="Transactions" transform="translate(-2.000000, 62.000000)"><path d="M823.142883,104.25 C822.822571,104.25 822.533508,104.398438 822.346008,104.648438 C822.181946,104.867188 822.111633,105.125 822.150696,105.390625 C822.189758,105.65625 822.330383,105.890625 822.541321,106.054688 L826.541321,109.054688 C826.752258,109.210938 827.033508,109.28125 827.299133,109.242188 C827.564758,109.195312 827.806946,109.046875 827.963196,108.828125 L833.955383,100.328125 C834.275696,99.875 834.166321,99.25 833.721008,98.929688 C833.283508,98.625 832.627258,98.742188 832.322571,99.171875 L826.916321,106.828125 L823.744446,104.453125 C823.564758,104.320312 823.361633,104.25 823.142883,104.25 L823.142883,104.25  Z " id="check"></path></g></g></g></g></g></svg>