<?xml version="1.0" encoding="utf-8" standalone="yes"?><!-- Generator: Adobe Illustrator 21.0.0, SVG Export Plug-In . SVG Version: 6.00 Build 0)  --><svg xmlns="http://www.w3.org/2000/svg" xmlns:xlink="http://www.w3.org/1999/xlink" version="1.1" x="0px" y="0px" viewBox="0 0 35 35" style="enable-background:new 0 0 35 35;zoom: 1;" xml:space="preserve"><style type="text/css"><![CDATA[
        .st0{fill:#476cb8;}
]]></style><g><path class="st0" d="M17.5,34.5c-9.4,0-17-7.6-17-17s7.6-17,17-17s17,7.6,17,17S26.9,34.5,17.5,34.5z M17.5,1.5 c-8.8,0-16,7.2-16,16s7.2,16,16,16s16-7.2,16-16S26.3,1.5,17.5,1.5z"></path></g><path class="st0" d="M23.8,18.2c-0.3-0.3-0.8-0.3-1.1,0l-4.7,4.6V10.5c0-0.4-0.3-0.8-0.8-0.8s-0.8,0.3-0.8,0.8v12.1l-4.4-4.3 c-0.3-0.3-0.8-0.3-1.1,0c-0.3,0.3-0.3,0.8,0,1.1l5.8,5.6c0.1,0.1,0.3,0.2,0.5,0.2c0.2,0,0.4-0.1,0.5-0.2l5.9-5.8 C24.1,18.9,24.1,18.5,23.8,18.2z"></path></svg>