<svg xmlns="http://www.w3.org/2000/svg" width="1000" height="1000" viewBox="0 0 2000 2000">
  <metadata><?xpacket begin="﻿" id="W5M0MpCehiHzreSzNTczkc9d"?>
<x:xmpmeta xmlns:x="adobe:ns:meta/" x:xmptk="Adobe XMP Core 5.6-c138 79.159824, 2016/09/14-01:09:01        ">
   <rdf:RDF xmlns:rdf="http://www.w3.org/1999/02/22-rdf-syntax-ns#">
      <rdf:Description rdf:about=""/>
   </rdf:RDF>
</x:xmpmeta>
                                                                                                    
                                                                                                    
                                                                                                    
                                                                                                    
                                                                                                    
                                                                                                    
                                                                                                    
                                                                                                    
                                                                                                    
                                                                                                    
                                                                                                    
                                                                                                    
                                                                                                    
                                                                                                    
                                                                                                    
                                                                                                    
                                                                                                    
                                                                                                    
                                                                                                    
                                                                                                    
                           
<?xpacket end="w"?></metadata>
<defs>
    <style>
      .cls-1 {
        fill: #0c2e76;
      }

      .cls-1, .cls-2, .cls-3, .cls-4, .cls-5, .cls-6, .cls-7 {
        fill-rule: evenodd;
      }

      .cls-2 {
        fill: #142a59;
      }

      .cls-3 {
        fill: #183c87;
      }

      .cls-4 {
        fill: #2e2e2e;
      }

      .cls-5 {
        fill: #466bb8;
      }

      .cls-6 {
        fill: #182237;
      }

      .cls-7 {
        fill: #fff;
      }
    </style>
  </defs>
  <path class="cls-1" d="M872,983L526.036,784.535l-0.025-151.617,474.9-274.927s204.85,118.635,345.5,200.087c73.51,42.576,129.49,74.992,129.49,74.992L1475.92,786,1131,983l-0.15,399.89-129.76,75.12-129.124-74.78Z"/>
  <path class="cls-2" d="M526,634l474,274,1,550-129-75V983L526,785V634Z"/>
  <path class="cls-3" d="M1000,908L525,633h950Zm1-550,475,275H526Z"/>
  <path class="cls-4" d="M1548.48,1657.74l-374.98-216.5-0.01-432.99,374.96-216.482,374.97,216.5,0.01,432.99Z"/>
  <path id="Shape_4_copy" data-name="Shape 4 copy" class="cls-3" d="M1174,1009l375-217,375,217H1174Zm0,0,375,217,375-217H1174Z"/>
  <path class="cls-5" d="M1924,1009l-375,217v432l375-216V1009Z"/>
  <path id="Shape_4_copy_2" data-name="Shape 4 copy 2" class="cls-2" d="M1550,1658l-375-217V1009l375,216v433Z"/>
  <path id="Shape_2_copy" data-name="Shape 2 copy" class="cls-4" d="M455.476,1657.74L80.5,1441.24l-0.01-432.99L455.448,791.768l374.975,216.5,0.01,432.99Z"/>
  <path id="Shape_4_copy_3" data-name="Shape 4 copy 3" class="cls-2" d="M79,1010L454,793l375,217H79Zm0,0,375,217,375-217H79Z"/>
  <path id="Shape_4_copy_3-2" data-name="Shape 4 copy 3" class="cls-1" d="M829,1010L454,1227v432l375-216V1010Z"/>
  <path id="Shape_4_copy_3-3" data-name="Shape 4 copy 3" class="cls-6" d="M455,1659L80,1442V1010l375,216v433Z"/>
  <path class="cls-7" d="M1001,355s441.44,256.664,475.51,275.634c0,51.78.49,156.366,0.49,156.366L1132,984l-0.86,400.37L1001,1459.54l-129.14-75.17L872,984,525.485,784.988V631.636Zm-1,24.055c-33.759,20.277-469.2,271.778-454.492,263.606v130.3C675.82,843.233,858.635,952.754,869.857,958.387c27.323,13.329,22.029,9.991,22.024,52.123,0-49.915-.008,315.93,0,361.83,42.264,25,92.853,54.69,108.117,63.14,57.692-31.61,97.482-54.64,111.122-63.14v-391.9c0.3-13.347,3.72-11.023,28.03-25.058,188.06-108.053,274.2-157.176,317.34-181.417,0-43.763-.14-108.7,0-131.3C1434.4,629.909,1023.46,392.622,1000,379.055ZM456,790l376,218-1,434L454.408,1660,79,1443.5l-1-435Zm1093.59,0,375.42,217.97c0,0.23-.01,434.53-0.01,434.53L1551,1661l-378-219V1008ZM454.408,814.055c-17.046,10.181-306.28,176.888-355.385,205.475v411.94c42.268,23.88,263.337,150.37,355.385,204.47,51.586-29.99,321.473-184.51,356.385-204.47V1019.53C776.626,999.265,654.091,928.455,454.408,814.055Zm1094.182,0L1194.21,1019.53v410.94l356.38,204.47,354.39-203.47V1019.53Z"/>
</svg>
