<?xml version="1.0" encoding="UTF-8" standalone="yes"?><svg xmlns="http://www.w3.org/2000/svg" xmlns:xlink="http://www.w3.org/1999/xlink" width="247px" height="247px" viewBox="0 0 247 247" version="1.1" style="zoom: 1;"><!-- Generator: Sketch 42 (36781) - http://www.bohemiancoding.com/sketch --><title>onboarding-tour-phone</title><desc>Created with Sketch.</desc><defs><linearGradient x1="50.0034413%" y1="-0.00291497976%" x2="50.0034413%" y2="75.267085%" id="linearGradient-1"><stop stop-color="#192C3A" offset="0%"></stop><stop stop-color="#192C3A" offset="100%"></stop></linearGradient></defs><g id="Page-1" stroke="none" stroke-width="1" fill="none" fill-rule="evenodd"><g id="onboarding-tour-phone"><path d="M123.5,247 C191.7,247 247,191.7 247,123.5 C247,55.3 191.7,0 123.5,0 C55.3,0 0,55.3 0,123.5 C0,191.7 55.3,247 123.5,247  Z " id="Shape" fill-rule="nonzero" fill="url(#linearGradient-1)" opacity="0.3"></path><g id="Group" transform="translate(69.000000, 32.000000)" stroke="#707D89" stroke-width="2"><path d="M8,0 L91.8,0 C96.2,0 99.8,3.6 99.8,8 L99.8,175.9 C99.8,180.3 96.2,183.9 91.8,183.9 L8,183.9 C3.6,183.9 0,180.3 0,175.9 L0,8 C0,3.6 3.6,0 8,0  Z " id="Shape" fill-opacity="0.6548" fill-rule="nonzero" fill="#192C3A"></path><path d="M0.5,156 L99.3,156" id="Shape" stroke-linecap="square"></path><path d="M44.1,170.3 L62.8,170.3" id="Shape" stroke-linecap="square"></path></g><g id="Group" fill-rule="nonzero" transform="translate(102.000000, 66.000000)" fill="#476cb8"><path d="M31.799999,0 L0,0 L0,31.799999 L31.799999,31.799999 L31.799999,0 L31.799999,0  Z M27.299999,27.299999 L4.6,27.299999 L4.6,4.5 L27.299999,4.5 L27.299999,27.299999 L27.299999,27.299999  Z " id="Shape"></path><polygon id="Shape" points="65.900002,90.900002 61.400002,90.900002 61.400002,100 100,100 100,95.5 65.900002,95.5 "></polygon><rect y="9.1px" id="Rectangle-path" x="9.1px" width="13.6" height="13.6"></rect><path d="M0,100 L31.799999,100 L31.799999,68.199997 L0,68.199997 L0,100 L0,100  Z M4.5,72.699997 L27.200001,72.699997 L27.200001,95.400002 L4.5,95.400002 L4.5,72.699997 L4.5,72.699997  Z " id="Shape"></path><rect y="77.300003px" id="Rectangle-path" x="9.1px" width="13.6" height="13.6"></rect><path d="M68.199997,0 L68.199997,31.799999 L100,31.799999 L100,0 L68.199997,0 L68.199997,0  Z M95.5,27.299999 L72.800003,27.299999 L72.800003,4.5 L95.5,4.5 L95.5,27.299999 L95.5,27.299999  Z " id="Shape"></path><rect y="9.1px" id="Rectangle-path" x="77.300003px" width="13.6" height="13.6"></rect><rect y="36.400002px" id="Rectangle-path" x="90.900002px" width="9.1" height="9.1"></rect><rect y="54.5px" id="Rectangle-path" x="0px" width="9.1" height="9.1"></rect><polygon id="Shape" points="47.700001,36.400002 29.5,36.400002 29.5,40.900002 52.299999,40.900002 52.299999,31.799999 52.299999,27.299999 56.799999,27.299999 56.799999,18.200001 52.299999,18.200001 47.700001,18.200001 43.200001,18.200001 43.200001,9.1 47.700001,9.1 47.700001,13.6 63.599998,13.6 63.599998,0 59.099998,0 59.099998,9.1 52.299999,9.1 52.299999,0 50,0 40.900002,0 38.599998,0 38.599998,22.700001 47.700001,22.700001 47.700001,27.299999 38.599998,27.299999 38.599998,31.799999 47.700001,31.799999 "></polygon><polygon id="Shape" points="6.8,50 15.9,50 20.5,50 22.700001,50 22.700001,54.5 13.6,54.5 13.6,59.099998 22.700001,59.099998 22.700001,63.599998 40.900002,63.599998 40.900002,59.099998 27.299999,59.099998 27.299999,54.5 27.299999,45.5 20.5,45.5 20.5,38.599998 15.9,38.599998 15.9,45.5 11.4,45.5 11.4,36.400002 0,36.400002 0,40.900002 6.8,40.900002 "></polygon><polygon id="Shape" points="50,90.900002 50,79.5 40.900002,79.5 40.900002,70.5 36.400002,70.5 36.400002,84.099998 45.5,84.099998 45.5,90.900002 36.400002,90.900002 36.400002,95.5 45.5,95.5 45.5,100 56.799999,100 56.799999,95.5 50,95.5 "></polygon><polygon id="Shape" points="72.699997,45.5 63.599998,45.5 63.599998,34.099998 59.099998,34.099998 59.099998,50 81.800003,50 81.800003,45.5 77.300003,45.5 77.300003,40.900002 84.099998,40.900002 84.099998,36.400002 77.300003,36.400002 72.699997,36.400002 68.199997,36.400002 68.199997,40.900002 72.699997,40.900002 "></polygon><polygon id="Shape" points="68.199997,86.400002 75,86.400002 75,90.900002 84.099998,90.900002 84.099998,86.400002 84.099998,81.800003 84.099998,75 75,75 75,81.800003 68.199997,81.800003 68.199997,75 63.599998,75 63.599998,81.800003 59.099998,81.800003 59.099998,63.599998 54.5,63.599998 54.5,59.099998 50,59.099998 50,45.5 34.099998,45.5 34.099998,54.5 38.599998,54.5 38.599998,50 45.5,50 45.5,59.099998 45.5,68.199997 54.5,68.199997 54.5,81.800003 54.5,86.400002 59.099998,86.400002 63.599998,86.400002 "></polygon><polygon id="Shape" points="95.5,56.799999 88.599998,56.799999 84.099998,56.799999 72.699997,56.799999 72.699997,65.900002 68.199997,65.900002 68.199997,56.799999 63.599998,56.799999 63.599998,70.5 77.300003,70.5 77.300003,61.400002 84.099998,61.400002 84.099998,68.199997 88.599998,68.199997 88.599998,61.400002 95.5,61.400002 95.5,75 88.599998,75 88.599998,88.599998 100,88.599998 100,84.099998 93.199997,84.099998 93.199997,79.5 100,79.5 100,61.400002 100,56.799999 100,50 95.5,50 "></polygon></g></g></g></svg>